<svg xmlns="http://www.w3.org/2000/svg" width="1200" height="260" viewBox="0 0 1200 260" fill="none">
  <g stroke="#7cd4f5" stroke-width="1.4" fill="none" stroke-linecap="round">
    <path d="M0 30 Q75 2 150 30 Q225 58 300 30 Q375 2 450 30 Q525 58 600 30 Q675 2 750 30 Q825 58 900 30 Q975 2 1050 30 Q1125 58 1200 30"/>
    <path d="M0 80 Q75 52 150 80 Q225 108 300 80 Q375 52 450 80 Q525 108 600 80 Q675 52 750 80 Q825 108 900 80 Q975 52 1050 80 Q1125 108 1200 80"/>
    <path d="M0 130 Q75 102 150 130 Q225 158 300 130 Q375 102 450 130 Q525 158 600 130 Q675 102 750 130 Q825 158 900 130 Q975 102 1050 130 Q1125 158 1200 130"/>
    <path d="M0 180 Q75 152 150 180 Q225 208 300 180 Q375 152 450 180 Q525 208 600 180 Q675 152 750 180 Q825 208 900 180 Q975 152 1050 180 Q1125 208 1200 180"/>
    <path d="M0 230 Q75 202 150 230 Q225 258 300 230 Q375 202 450 230 Q525 258 600 230 Q675 202 750 230 Q825 258 900 230 Q975 202 1050 230 Q1125 258 1200 230"/>
  </g>
</svg>
